# xmcd
#
# Track frame offsets:
#	150
#	11995
#	33672
#	50815
#	73552
#	85825
#	98997
#	115887
#	136371
#	150504
#
# Disc length: 2269 seconds
# Revision: 0
# Processed by: cddbd v1.5.2PL0 Copyright (c) Steve Scherf et al.
# Submitted via: dBpowerAMP V12.0
#
DISCID=8708db0a
DTITLE=Slim Pickens - Pass It On
DYEAR=2012
DGENRE=Blues
TTITLE0=House Of Gold
TTITLE1=Paid For Waiting Around
TTITLE2=Payday Again
TTITLE3=Billy The Kid
TTITLE4=Hometown Blues
TTITLE5=Losin' Sleep
TTITLE6=Down To The River
TTITLE7=Boy On The Run
TTITLE8=Gone Gone Away
TTITLE9=Who Cares
EXTD=
EXTT0=
EXTT1=
EXTT2=
EXTT3=
EXTT4=
EXTT5=
EXTT6=
EXTT7=
EXTT8=
EXTT9=
PLAYORDER=
